<mxfile host="app.diagrams.net" modified="2023-11-09T08:44:42.100Z" agent="Mozilla/5.0 (X11; Linux x86_64) AppleWebKit/537.36 (KHTML, like Gecko) Chrome/119.0.0.0 Safari/537.36" etag="IzJwwCgKu69d5Qscivb6" version="22.1.0" type="device">
  <diagram name="Page-1" id="9Q64Mk7Gp9zNSfC145Et">
    <mxGraphModel dx="1372" dy="811" grid="1" gridSize="10" guides="1" tooltips="1" connect="1" arrows="1" fold="1" page="1" pageScale="1" pageWidth="850" pageHeight="1100" math="0" shadow="0">
      <root>
        <mxCell id="0" />
        <mxCell id="1" parent="0" />
        <mxCell id="gSCNCoqIwea7sdpjHVcm-4" style="edgeStyle=orthogonalEdgeStyle;rounded=0;orthogonalLoop=1;jettySize=auto;html=1;exitX=1;exitY=0.5;exitDx=0;exitDy=0;exitPerimeter=0;entryX=0;entryY=0.5;entryDx=0;entryDy=0;" edge="1" parent="1" source="gSCNCoqIwea7sdpjHVcm-1" target="gSCNCoqIwea7sdpjHVcm-3">
          <mxGeometry relative="1" as="geometry" />
        </mxCell>
        <mxCell id="gSCNCoqIwea7sdpjHVcm-1" value="" style="shape=cylinder3;whiteSpace=wrap;html=1;boundedLbl=1;backgroundOutline=1;size=15;" vertex="1" parent="1">
          <mxGeometry x="90" y="150" width="60" height="80" as="geometry" />
        </mxCell>
        <mxCell id="gSCNCoqIwea7sdpjHVcm-2" value="raw data" style="text;html=1;strokeColor=none;fillColor=none;align=center;verticalAlign=middle;whiteSpace=wrap;rounded=0;" vertex="1" parent="1">
          <mxGeometry x="90" y="110" width="60" height="30" as="geometry" />
        </mxCell>
        <mxCell id="gSCNCoqIwea7sdpjHVcm-3" value="Crop image&lt;br&gt;(focus on object)" style="rounded=1;whiteSpace=wrap;html=1;" vertex="1" parent="1">
          <mxGeometry x="200" y="160" width="120" height="60" as="geometry" />
        </mxCell>
        <mxCell id="gSCNCoqIwea7sdpjHVcm-9" style="edgeStyle=orthogonalEdgeStyle;rounded=0;orthogonalLoop=1;jettySize=auto;html=1;exitX=1;exitY=0.5;exitDx=0;exitDy=0;exitPerimeter=0;entryX=0;entryY=0.5;entryDx=0;entryDy=0;" edge="1" parent="1" source="gSCNCoqIwea7sdpjHVcm-5" target="gSCNCoqIwea7sdpjHVcm-8">
          <mxGeometry relative="1" as="geometry" />
        </mxCell>
        <mxCell id="gSCNCoqIwea7sdpjHVcm-5" value="" style="shape=cylinder3;whiteSpace=wrap;html=1;boundedLbl=1;backgroundOutline=1;size=15;" vertex="1" parent="1">
          <mxGeometry x="390" y="150" width="60" height="80" as="geometry" />
        </mxCell>
        <mxCell id="gSCNCoqIwea7sdpjHVcm-6" style="edgeStyle=orthogonalEdgeStyle;rounded=0;orthogonalLoop=1;jettySize=auto;html=1;exitX=1;exitY=0.5;exitDx=0;exitDy=0;entryX=0;entryY=0.5;entryDx=0;entryDy=0;entryPerimeter=0;" edge="1" parent="1" source="gSCNCoqIwea7sdpjHVcm-3" target="gSCNCoqIwea7sdpjHVcm-5">
          <mxGeometry relative="1" as="geometry" />
        </mxCell>
        <mxCell id="gSCNCoqIwea7sdpjHVcm-7" value="crop image data" style="text;html=1;strokeColor=none;fillColor=none;align=center;verticalAlign=middle;whiteSpace=wrap;rounded=0;" vertex="1" parent="1">
          <mxGeometry x="390" y="110" width="60" height="30" as="geometry" />
        </mxCell>
        <mxCell id="gSCNCoqIwea7sdpjHVcm-12" style="edgeStyle=orthogonalEdgeStyle;rounded=0;orthogonalLoop=1;jettySize=auto;html=1;exitX=1;exitY=0.5;exitDx=0;exitDy=0;entryX=0;entryY=0.5;entryDx=0;entryDy=0;" edge="1" parent="1" source="gSCNCoqIwea7sdpjHVcm-8">
          <mxGeometry relative="1" as="geometry">
            <mxPoint x="750" y="190" as="targetPoint" />
          </mxGeometry>
        </mxCell>
        <mxCell id="gSCNCoqIwea7sdpjHVcm-8" value="Preprocessing" style="rounded=1;whiteSpace=wrap;html=1;" vertex="1" parent="1">
          <mxGeometry x="530" y="160" width="120" height="60" as="geometry" />
        </mxCell>
        <mxCell id="gSCNCoqIwea7sdpjHVcm-10" value="&lt;h1&gt;&lt;span style=&quot;background-color: initial; font-size: 12px; font-weight: normal;&quot;&gt;- flatten&lt;/span&gt;&lt;br&gt;&lt;/h1&gt;&lt;p&gt;- HoG&lt;/p&gt;" style="text;html=1;strokeColor=none;fillColor=none;spacing=5;spacingTop=-20;whiteSpace=wrap;overflow=hidden;rounded=0;" vertex="1" parent="1">
          <mxGeometry x="517.5" y="80" width="145" height="100" as="geometry" />
        </mxCell>
        <mxCell id="gSCNCoqIwea7sdpjHVcm-13" value="" style="shape=cylinder3;whiteSpace=wrap;html=1;boundedLbl=1;backgroundOutline=1;size=15;" vertex="1" parent="1">
          <mxGeometry x="750" y="150" width="60" height="80" as="geometry" />
        </mxCell>
        <mxCell id="gSCNCoqIwea7sdpjHVcm-14" value="Dataset" style="text;html=1;strokeColor=none;fillColor=none;align=center;verticalAlign=middle;whiteSpace=wrap;rounded=0;" vertex="1" parent="1">
          <mxGeometry x="750" y="110" width="60" height="30" as="geometry" />
        </mxCell>
        <mxCell id="gSCNCoqIwea7sdpjHVcm-16" value="" style="endArrow=none;dashed=1;html=1;dashPattern=1 3;strokeWidth=2;rounded=0;" edge="1" parent="1">
          <mxGeometry width="50" height="50" relative="1" as="geometry">
            <mxPoint x="80" y="280" as="sourcePoint" />
            <mxPoint x="840" y="280" as="targetPoint" />
          </mxGeometry>
        </mxCell>
        <mxCell id="gSCNCoqIwea7sdpjHVcm-17" value="" style="endArrow=none;dashed=1;html=1;dashPattern=1 3;strokeWidth=2;rounded=0;" edge="1" parent="1">
          <mxGeometry width="50" height="50" relative="1" as="geometry">
            <mxPoint x="80" y="280" as="sourcePoint" />
            <mxPoint x="80" y="40" as="targetPoint" />
          </mxGeometry>
        </mxCell>
        <mxCell id="gSCNCoqIwea7sdpjHVcm-18" value="" style="endArrow=none;dashed=1;html=1;dashPattern=1 3;strokeWidth=2;rounded=0;" edge="1" parent="1">
          <mxGeometry width="50" height="50" relative="1" as="geometry">
            <mxPoint x="80" y="40" as="sourcePoint" />
            <mxPoint x="840" y="40" as="targetPoint" />
          </mxGeometry>
        </mxCell>
        <mxCell id="gSCNCoqIwea7sdpjHVcm-19" value="" style="endArrow=none;dashed=1;html=1;dashPattern=1 3;strokeWidth=2;rounded=0;" edge="1" parent="1">
          <mxGeometry width="50" height="50" relative="1" as="geometry">
            <mxPoint x="840" y="280" as="sourcePoint" />
            <mxPoint x="840" y="40" as="targetPoint" />
          </mxGeometry>
        </mxCell>
        <mxCell id="gSCNCoqIwea7sdpjHVcm-20" value="KNN" style="rounded=0;whiteSpace=wrap;html=1;" vertex="1" parent="1">
          <mxGeometry x="80" y="380" width="120" height="60" as="geometry" />
        </mxCell>
        <mxCell id="gSCNCoqIwea7sdpjHVcm-21" value="Decision Tree" style="rounded=0;whiteSpace=wrap;html=1;" vertex="1" parent="1">
          <mxGeometry x="80" y="460" width="120" height="60" as="geometry" />
        </mxCell>
        <mxCell id="gSCNCoqIwea7sdpjHVcm-22" value="Random forest" style="rounded=0;whiteSpace=wrap;html=1;" vertex="1" parent="1">
          <mxGeometry x="80" y="540" width="120" height="60" as="geometry" />
        </mxCell>
        <mxCell id="gSCNCoqIwea7sdpjHVcm-23" value="Adaboost" style="rounded=0;whiteSpace=wrap;html=1;" vertex="1" parent="1">
          <mxGeometry x="80" y="620" width="120" height="60" as="geometry" />
        </mxCell>
        <mxCell id="gSCNCoqIwea7sdpjHVcm-24" value="Gradient boost" style="rounded=0;whiteSpace=wrap;html=1;" vertex="1" parent="1">
          <mxGeometry x="230" y="380" width="120" height="60" as="geometry" />
        </mxCell>
        <mxCell id="gSCNCoqIwea7sdpjHVcm-25" value="XGBoost" style="rounded=0;whiteSpace=wrap;html=1;" vertex="1" parent="1">
          <mxGeometry x="230" y="460" width="120" height="60" as="geometry" />
        </mxCell>
        <mxCell id="gSCNCoqIwea7sdpjHVcm-26" value="SVM" style="rounded=0;whiteSpace=wrap;html=1;" vertex="1" parent="1">
          <mxGeometry x="230" y="540" width="120" height="60" as="geometry" />
        </mxCell>
        <mxCell id="gSCNCoqIwea7sdpjHVcm-27" value="Logistic Regression" style="rounded=0;whiteSpace=wrap;html=1;" vertex="1" parent="1">
          <mxGeometry x="230" y="620" width="120" height="60" as="geometry" />
        </mxCell>
        <mxCell id="gSCNCoqIwea7sdpjHVcm-28" value="MLP" style="rounded=0;whiteSpace=wrap;html=1;" vertex="1" parent="1">
          <mxGeometry x="150" y="700" width="120" height="60" as="geometry" />
        </mxCell>
        <mxCell id="gSCNCoqIwea7sdpjHVcm-30" value="Model selection" style="rounded=1;whiteSpace=wrap;html=1;" vertex="1" parent="1">
          <mxGeometry x="480" y="530" width="120" height="60" as="geometry" />
        </mxCell>
        <mxCell id="gSCNCoqIwea7sdpjHVcm-31" value="" style="shape=flexArrow;endArrow=classic;html=1;rounded=0;entryX=0;entryY=0.5;entryDx=0;entryDy=0;" edge="1" parent="1" target="gSCNCoqIwea7sdpjHVcm-30">
          <mxGeometry width="50" height="50" relative="1" as="geometry">
            <mxPoint x="370" y="560" as="sourcePoint" />
            <mxPoint x="450" y="390" as="targetPoint" />
          </mxGeometry>
        </mxCell>
        <mxCell id="gSCNCoqIwea7sdpjHVcm-32" value="" style="endArrow=classic;html=1;rounded=0;entryX=0.5;entryY=0;entryDx=0;entryDy=0;exitX=0.5;exitY=1;exitDx=0;exitDy=0;exitPerimeter=0;" edge="1" parent="1" source="gSCNCoqIwea7sdpjHVcm-13" target="gSCNCoqIwea7sdpjHVcm-30">
          <mxGeometry width="50" height="50" relative="1" as="geometry">
            <mxPoint x="400" y="440" as="sourcePoint" />
            <mxPoint x="450" y="390" as="targetPoint" />
            <Array as="points">
              <mxPoint x="780" y="360" />
              <mxPoint x="540" y="360" />
            </Array>
          </mxGeometry>
        </mxCell>
        <mxCell id="gSCNCoqIwea7sdpjHVcm-33" value="" style="endArrow=none;html=1;rounded=0;" edge="1" parent="1">
          <mxGeometry width="50" height="50" relative="1" as="geometry">
            <mxPoint x="360" y="360" as="sourcePoint" />
            <mxPoint x="360" y="780" as="targetPoint" />
          </mxGeometry>
        </mxCell>
        <mxCell id="gSCNCoqIwea7sdpjHVcm-34" value="" style="endArrow=none;html=1;rounded=0;" edge="1" parent="1">
          <mxGeometry width="50" height="50" relative="1" as="geometry">
            <mxPoint x="60" y="360" as="sourcePoint" />
            <mxPoint x="360" y="360" as="targetPoint" />
          </mxGeometry>
        </mxCell>
        <mxCell id="gSCNCoqIwea7sdpjHVcm-35" value="" style="endArrow=none;html=1;rounded=0;" edge="1" parent="1">
          <mxGeometry width="50" height="50" relative="1" as="geometry">
            <mxPoint x="60" y="360" as="sourcePoint" />
            <mxPoint x="60" y="780" as="targetPoint" />
          </mxGeometry>
        </mxCell>
        <mxCell id="gSCNCoqIwea7sdpjHVcm-36" value="" style="endArrow=none;html=1;rounded=0;" edge="1" parent="1">
          <mxGeometry width="50" height="50" relative="1" as="geometry">
            <mxPoint x="60" y="780" as="sourcePoint" />
            <mxPoint x="360" y="780" as="targetPoint" />
          </mxGeometry>
        </mxCell>
        <mxCell id="gSCNCoqIwea7sdpjHVcm-37" value="" style="endArrow=classic;html=1;rounded=0;exitX=1;exitY=0.5;exitDx=0;exitDy=0;" edge="1" parent="1" source="gSCNCoqIwea7sdpjHVcm-30">
          <mxGeometry width="50" height="50" relative="1" as="geometry">
            <mxPoint x="400" y="440" as="sourcePoint" />
            <mxPoint x="680" y="560" as="targetPoint" />
          </mxGeometry>
        </mxCell>
        <mxCell id="gSCNCoqIwea7sdpjHVcm-40" style="edgeStyle=orthogonalEdgeStyle;rounded=0;orthogonalLoop=1;jettySize=auto;html=1;exitX=1;exitY=0.5;exitDx=0;exitDy=0;entryX=0;entryY=0.5;entryDx=0;entryDy=0;" edge="1" parent="1" source="gSCNCoqIwea7sdpjHVcm-38" target="gSCNCoqIwea7sdpjHVcm-39">
          <mxGeometry relative="1" as="geometry" />
        </mxCell>
        <mxCell id="gSCNCoqIwea7sdpjHVcm-38" value="Model" style="rounded=0;whiteSpace=wrap;html=1;" vertex="1" parent="1">
          <mxGeometry x="680" y="530" width="120" height="60" as="geometry" />
        </mxCell>
        <mxCell id="gSCNCoqIwea7sdpjHVcm-39" value="Training" style="rounded=1;whiteSpace=wrap;html=1;" vertex="1" parent="1">
          <mxGeometry x="880" y="530" width="120" height="60" as="geometry" />
        </mxCell>
        <mxCell id="gSCNCoqIwea7sdpjHVcm-41" value="" style="endArrow=classic;html=1;rounded=0;entryX=0.5;entryY=0;entryDx=0;entryDy=0;" edge="1" parent="1" target="gSCNCoqIwea7sdpjHVcm-39">
          <mxGeometry width="50" height="50" relative="1" as="geometry">
            <mxPoint x="780" y="360" as="sourcePoint" />
            <mxPoint x="450" y="390" as="targetPoint" />
            <Array as="points">
              <mxPoint x="940" y="360" />
            </Array>
          </mxGeometry>
        </mxCell>
        <mxCell id="gSCNCoqIwea7sdpjHVcm-42" value="" style="endArrow=classic;html=1;rounded=0;exitX=1;exitY=0.5;exitDx=0;exitDy=0;" edge="1" parent="1" source="gSCNCoqIwea7sdpjHVcm-39">
          <mxGeometry width="50" height="50" relative="1" as="geometry">
            <mxPoint x="1040" y="440" as="sourcePoint" />
            <mxPoint x="1110" y="560" as="targetPoint" />
          </mxGeometry>
        </mxCell>
        <mxCell id="gSCNCoqIwea7sdpjHVcm-60" style="edgeStyle=orthogonalEdgeStyle;rounded=0;orthogonalLoop=1;jettySize=auto;html=1;exitX=0.5;exitY=1;exitDx=0;exitDy=0;entryX=0.5;entryY=0;entryDx=0;entryDy=0;" edge="1" parent="1" source="gSCNCoqIwea7sdpjHVcm-43" target="gSCNCoqIwea7sdpjHVcm-58">
          <mxGeometry relative="1" as="geometry">
            <Array as="points">
              <mxPoint x="1170" y="880" />
              <mxPoint x="780" y="880" />
            </Array>
          </mxGeometry>
        </mxCell>
        <mxCell id="gSCNCoqIwea7sdpjHVcm-43" value="Trained model" style="rounded=0;whiteSpace=wrap;html=1;" vertex="1" parent="1">
          <mxGeometry x="1110" y="530" width="120" height="60" as="geometry" />
        </mxCell>
        <mxCell id="gSCNCoqIwea7sdpjHVcm-46" value="Input video" style="rounded=0;whiteSpace=wrap;html=1;" vertex="1" parent="1">
          <mxGeometry x="60" y="980" width="120" height="60" as="geometry" />
        </mxCell>
        <mxCell id="gSCNCoqIwea7sdpjHVcm-47" value="" style="endArrow=none;dashed=1;html=1;dashPattern=1 3;strokeWidth=2;rounded=0;" edge="1" parent="1">
          <mxGeometry width="50" height="50" relative="1" as="geometry">
            <mxPoint x="40" y="320" as="sourcePoint" />
            <mxPoint x="40" y="830" as="targetPoint" />
          </mxGeometry>
        </mxCell>
        <mxCell id="gSCNCoqIwea7sdpjHVcm-49" value="" style="endArrow=none;dashed=1;html=1;dashPattern=1 3;strokeWidth=2;rounded=0;" edge="1" parent="1">
          <mxGeometry width="50" height="50" relative="1" as="geometry">
            <mxPoint x="40" y="320" as="sourcePoint" />
            <mxPoint x="1280" y="320" as="targetPoint" />
          </mxGeometry>
        </mxCell>
        <mxCell id="gSCNCoqIwea7sdpjHVcm-50" value="" style="endArrow=none;dashed=1;html=1;dashPattern=1 3;strokeWidth=2;rounded=0;" edge="1" parent="1">
          <mxGeometry width="50" height="50" relative="1" as="geometry">
            <mxPoint x="1280" y="320" as="sourcePoint" />
            <mxPoint x="1280" y="830" as="targetPoint" />
          </mxGeometry>
        </mxCell>
        <mxCell id="gSCNCoqIwea7sdpjHVcm-51" value="" style="endArrow=none;dashed=1;html=1;dashPattern=1 3;strokeWidth=2;rounded=0;" edge="1" parent="1">
          <mxGeometry width="50" height="50" relative="1" as="geometry">
            <mxPoint x="40" y="830" as="sourcePoint" />
            <mxPoint x="1280" y="830" as="targetPoint" />
          </mxGeometry>
        </mxCell>
        <mxCell id="gSCNCoqIwea7sdpjHVcm-57" style="edgeStyle=orthogonalEdgeStyle;rounded=0;orthogonalLoop=1;jettySize=auto;html=1;exitX=1;exitY=0.5;exitDx=0;exitDy=0;entryX=0;entryY=0.5;entryDx=0;entryDy=0;" edge="1" parent="1" source="gSCNCoqIwea7sdpjHVcm-52" target="gSCNCoqIwea7sdpjHVcm-55">
          <mxGeometry relative="1" as="geometry" />
        </mxCell>
        <mxCell id="gSCNCoqIwea7sdpjHVcm-52" value="Detect object" style="rounded=1;whiteSpace=wrap;html=1;" vertex="1" parent="1">
          <mxGeometry x="280" y="980" width="120" height="60" as="geometry" />
        </mxCell>
        <mxCell id="gSCNCoqIwea7sdpjHVcm-53" value="" style="endArrow=classic;html=1;rounded=0;exitX=1;exitY=0.5;exitDx=0;exitDy=0;entryX=0;entryY=0.5;entryDx=0;entryDy=0;" edge="1" parent="1" source="gSCNCoqIwea7sdpjHVcm-46" target="gSCNCoqIwea7sdpjHVcm-52">
          <mxGeometry width="50" height="50" relative="1" as="geometry">
            <mxPoint x="630" y="820" as="sourcePoint" />
            <mxPoint x="680" y="770" as="targetPoint" />
          </mxGeometry>
        </mxCell>
        <mxCell id="gSCNCoqIwea7sdpjHVcm-54" value="- GMM&lt;br&gt;- find contour" style="text;html=1;strokeColor=none;fillColor=none;align=center;verticalAlign=middle;whiteSpace=wrap;rounded=0;" vertex="1" parent="1">
          <mxGeometry x="295" y="940" width="90" height="30" as="geometry" />
        </mxCell>
        <mxCell id="gSCNCoqIwea7sdpjHVcm-55" value="object tracking" style="rounded=1;whiteSpace=wrap;html=1;" vertex="1" parent="1">
          <mxGeometry x="500" y="980" width="120" height="60" as="geometry" />
        </mxCell>
        <mxCell id="gSCNCoqIwea7sdpjHVcm-56" value="Mean shift" style="text;html=1;strokeColor=none;fillColor=none;align=center;verticalAlign=middle;whiteSpace=wrap;rounded=0;" vertex="1" parent="1">
          <mxGeometry x="530" y="940" width="60" height="30" as="geometry" />
        </mxCell>
        <mxCell id="gSCNCoqIwea7sdpjHVcm-58" value="Bounding box" style="rounded=0;whiteSpace=wrap;html=1;" vertex="1" parent="1">
          <mxGeometry x="720" y="980" width="120" height="60" as="geometry" />
        </mxCell>
        <mxCell id="gSCNCoqIwea7sdpjHVcm-59" value="" style="endArrow=classic;html=1;rounded=0;exitX=1;exitY=0.5;exitDx=0;exitDy=0;entryX=0;entryY=0.5;entryDx=0;entryDy=0;" edge="1" parent="1" source="gSCNCoqIwea7sdpjHVcm-55" target="gSCNCoqIwea7sdpjHVcm-58">
          <mxGeometry width="50" height="50" relative="1" as="geometry">
            <mxPoint x="630" y="940" as="sourcePoint" />
            <mxPoint x="680" y="890" as="targetPoint" />
          </mxGeometry>
        </mxCell>
        <mxCell id="gSCNCoqIwea7sdpjHVcm-61" value="bounding box with predict class" style="rounded=0;whiteSpace=wrap;html=1;" vertex="1" parent="1">
          <mxGeometry x="940" y="980" width="120" height="60" as="geometry" />
        </mxCell>
        <mxCell id="gSCNCoqIwea7sdpjHVcm-62" value="" style="endArrow=classic;html=1;rounded=0;exitX=1;exitY=0.5;exitDx=0;exitDy=0;entryX=0;entryY=0.5;entryDx=0;entryDy=0;" edge="1" parent="1" source="gSCNCoqIwea7sdpjHVcm-58" target="gSCNCoqIwea7sdpjHVcm-61">
          <mxGeometry width="50" height="50" relative="1" as="geometry">
            <mxPoint x="630" y="820" as="sourcePoint" />
            <mxPoint x="680" y="770" as="targetPoint" />
          </mxGeometry>
        </mxCell>
        <mxCell id="gSCNCoqIwea7sdpjHVcm-63" value="" style="endArrow=classic;html=1;rounded=0;exitX=1;exitY=0.5;exitDx=0;exitDy=0;entryX=0;entryY=0.5;entryDx=0;entryDy=0;" edge="1" parent="1" source="gSCNCoqIwea7sdpjHVcm-61" target="gSCNCoqIwea7sdpjHVcm-64">
          <mxGeometry width="50" height="50" relative="1" as="geometry">
            <mxPoint x="990" y="820" as="sourcePoint" />
            <mxPoint x="1040" y="770" as="targetPoint" />
          </mxGeometry>
        </mxCell>
        <mxCell id="gSCNCoqIwea7sdpjHVcm-64" value="other object" style="rhombus;whiteSpace=wrap;html=1;" vertex="1" parent="1">
          <mxGeometry x="1180" y="970" width="80" height="80" as="geometry" />
        </mxCell>
        <mxCell id="gSCNCoqIwea7sdpjHVcm-65" value="" style="endArrow=classic;html=1;rounded=0;exitX=0.5;exitY=1;exitDx=0;exitDy=0;entryX=0.5;entryY=1;entryDx=0;entryDy=0;" edge="1" parent="1" source="gSCNCoqIwea7sdpjHVcm-64" target="gSCNCoqIwea7sdpjHVcm-52">
          <mxGeometry width="50" height="50" relative="1" as="geometry">
            <mxPoint x="1030" y="940" as="sourcePoint" />
            <mxPoint x="600" y="1190" as="targetPoint" />
            <Array as="points">
              <mxPoint x="1220" y="1130" />
              <mxPoint x="340" y="1130" />
            </Array>
          </mxGeometry>
        </mxCell>
        <mxCell id="gSCNCoqIwea7sdpjHVcm-66" value="count++" style="rounded=1;whiteSpace=wrap;html=1;" vertex="1" parent="1">
          <mxGeometry x="1340" y="980" width="120" height="60" as="geometry" />
        </mxCell>
        <mxCell id="gSCNCoqIwea7sdpjHVcm-67" value="" style="endArrow=classic;html=1;rounded=0;exitX=1;exitY=0.5;exitDx=0;exitDy=0;entryX=0;entryY=0.5;entryDx=0;entryDy=0;" edge="1" parent="1" source="gSCNCoqIwea7sdpjHVcm-64" target="gSCNCoqIwea7sdpjHVcm-66">
          <mxGeometry width="50" height="50" relative="1" as="geometry">
            <mxPoint x="1200" y="940" as="sourcePoint" />
            <mxPoint x="1250" y="890" as="targetPoint" />
          </mxGeometry>
        </mxCell>
        <mxCell id="gSCNCoqIwea7sdpjHVcm-68" value="True" style="text;html=1;strokeColor=none;fillColor=none;align=center;verticalAlign=middle;whiteSpace=wrap;rounded=0;" vertex="1" parent="1">
          <mxGeometry x="1260" y="980" width="60" height="30" as="geometry" />
        </mxCell>
        <mxCell id="gSCNCoqIwea7sdpjHVcm-69" value="False" style="text;html=1;strokeColor=none;fillColor=none;align=center;verticalAlign=middle;whiteSpace=wrap;rounded=0;" vertex="1" parent="1">
          <mxGeometry x="1220" y="1060" width="60" height="30" as="geometry" />
        </mxCell>
        <mxCell id="gSCNCoqIwea7sdpjHVcm-70" value="" style="endArrow=classic;html=1;rounded=0;exitX=1;exitY=0.5;exitDx=0;exitDy=0;" edge="1" parent="1" source="gSCNCoqIwea7sdpjHVcm-66">
          <mxGeometry width="50" height="50" relative="1" as="geometry">
            <mxPoint x="1550" y="940" as="sourcePoint" />
            <mxPoint x="1220" y="1130" as="targetPoint" />
            <Array as="points">
              <mxPoint x="1520" y="1010" />
              <mxPoint x="1520" y="1130" />
            </Array>
          </mxGeometry>
        </mxCell>
        <mxCell id="gSCNCoqIwea7sdpjHVcm-71" value="" style="shape=cylinder3;whiteSpace=wrap;html=1;boundedLbl=1;backgroundOutline=1;size=15;" vertex="1" parent="1">
          <mxGeometry x="1380" y="720" width="60" height="80" as="geometry" />
        </mxCell>
        <mxCell id="gSCNCoqIwea7sdpjHVcm-72" value="Database(firebase)" style="text;html=1;align=center;verticalAlign=middle;resizable=0;points=[];autosize=1;strokeColor=none;fillColor=none;" vertex="1" parent="1">
          <mxGeometry x="1345" y="680" width="130" height="30" as="geometry" />
        </mxCell>
        <mxCell id="gSCNCoqIwea7sdpjHVcm-73" style="edgeStyle=orthogonalEdgeStyle;rounded=0;orthogonalLoop=1;jettySize=auto;html=1;exitX=0.5;exitY=0;exitDx=0;exitDy=0;" edge="1" parent="1" source="gSCNCoqIwea7sdpjHVcm-66">
          <mxGeometry relative="1" as="geometry">
            <mxPoint x="1400" y="810" as="targetPoint" />
          </mxGeometry>
        </mxCell>
        <mxCell id="gSCNCoqIwea7sdpjHVcm-74" value="" style="ellipse;shape=cloud;whiteSpace=wrap;html=1;" vertex="1" parent="1">
          <mxGeometry x="1450" y="720" width="120" height="80" as="geometry" />
        </mxCell>
        <mxCell id="gSCNCoqIwea7sdpjHVcm-75" value="" style="endArrow=none;html=1;rounded=0;" edge="1" parent="1">
          <mxGeometry width="50" height="50" relative="1" as="geometry">
            <mxPoint x="1330" y="680" as="sourcePoint" />
            <mxPoint x="1330" y="680" as="targetPoint" />
            <Array as="points">
              <mxPoint x="1600" y="680" />
              <mxPoint x="1600" y="810" />
              <mxPoint x="1330" y="810" />
            </Array>
          </mxGeometry>
        </mxCell>
        <mxCell id="gSCNCoqIwea7sdpjHVcm-76" value="App/web" style="rounded=0;whiteSpace=wrap;html=1;" vertex="1" parent="1">
          <mxGeometry x="1750" y="860" width="120" height="60" as="geometry" />
        </mxCell>
        <mxCell id="gSCNCoqIwea7sdpjHVcm-77" value="" style="endArrow=classic;html=1;rounded=0;exitX=0;exitY=0;exitDx=0;exitDy=0;" edge="1" parent="1" source="gSCNCoqIwea7sdpjHVcm-76">
          <mxGeometry width="50" height="50" relative="1" as="geometry">
            <mxPoint x="1520" y="820" as="sourcePoint" />
            <mxPoint x="1570" y="770" as="targetPoint" />
          </mxGeometry>
        </mxCell>
        <mxCell id="gSCNCoqIwea7sdpjHVcm-78" value="users" style="shape=umlActor;verticalLabelPosition=bottom;verticalAlign=top;html=1;outlineConnect=0;" vertex="1" parent="1">
          <mxGeometry x="1990" y="920" width="30" height="60" as="geometry" />
        </mxCell>
        <mxCell id="gSCNCoqIwea7sdpjHVcm-79" value="" style="endArrow=classic;html=1;rounded=0;entryX=1;entryY=0.75;entryDx=0;entryDy=0;" edge="1" parent="1" source="gSCNCoqIwea7sdpjHVcm-78" target="gSCNCoqIwea7sdpjHVcm-76">
          <mxGeometry width="50" height="50" relative="1" as="geometry">
            <mxPoint x="1520" y="820" as="sourcePoint" />
            <mxPoint x="1570" y="770" as="targetPoint" />
          </mxGeometry>
        </mxCell>
        <mxCell id="gSCNCoqIwea7sdpjHVcm-80" value="" style="endArrow=classic;html=1;rounded=0;exitX=0.8;exitY=0.8;exitDx=0;exitDy=0;exitPerimeter=0;entryX=0;entryY=0.25;entryDx=0;entryDy=0;" edge="1" parent="1" source="gSCNCoqIwea7sdpjHVcm-74" target="gSCNCoqIwea7sdpjHVcm-76">
          <mxGeometry width="50" height="50" relative="1" as="geometry">
            <mxPoint x="1520" y="820" as="sourcePoint" />
            <mxPoint x="1570" y="770" as="targetPoint" />
          </mxGeometry>
        </mxCell>
        <mxCell id="gSCNCoqIwea7sdpjHVcm-81" value="" style="endArrow=classic;html=1;rounded=0;entryX=0;entryY=0.3333333333333333;entryDx=0;entryDy=0;entryPerimeter=0;exitX=1.017;exitY=0.633;exitDx=0;exitDy=0;exitPerimeter=0;" edge="1" parent="1" source="gSCNCoqIwea7sdpjHVcm-76" target="gSCNCoqIwea7sdpjHVcm-78">
          <mxGeometry width="50" height="50" relative="1" as="geometry">
            <mxPoint x="1520" y="820" as="sourcePoint" />
            <mxPoint x="1570" y="770" as="targetPoint" />
          </mxGeometry>
        </mxCell>
      </root>
    </mxGraphModel>
  </diagram>
</mxfile>
